<?xml version="1.0" encoding="UTF-8" standalone="no"?>
<svg
   height="16"
   viewBox="0 0 16 16"
   width="16"
   version="1.1"
   id="svg40423"
   sodipodi:docname="Dialogue.svg"
   inkscape:version="1.2 (dc2aedaf03, 2022-05-15)"
   xmlns:inkscape="http://www.inkscape.org/namespaces/inkscape"
   xmlns:sodipodi="http://sodipodi.sourceforge.net/DTD/sodipodi-0.dtd"
   xmlns="http://www.w3.org/2000/svg"
   xmlns:svg="http://www.w3.org/2000/svg">
  <defs
     id="defs40427" />
  <sodipodi:namedview
     id="namedview40425"
     pagecolor="#ffffff"
     bordercolor="#666666"
     borderopacity="1.0"
     inkscape:showpageshadow="2"
     inkscape:pageopacity="0.0"
     inkscape:pagecheckerboard="0"
     inkscape:deskcolor="#d1d1d1"
     showgrid="false"
     inkscape:zoom="54.4375"
     inkscape:cx="7.3295063"
     inkscape:cy="8.0183697"
     inkscape:window-width="1824"
     inkscape:window-height="960"
     inkscape:window-x="48"
     inkscape:window-y="48"
     inkscape:window-maximized="1"
     inkscape:current-layer="svg40423" />
  <path
     d="m8 2a6 6 0 0 0 -6 6 6 6 0 0 0 6 6 6 6 0 0 0 6-6 6 6 0 0 0 -6-6zm0 2a4 4 0 0 1 4 4 4 4 0 0 1 -4 4 4 4 0 0 1 -4-4 4 4 0 0 1 4-4z"
     fill="#8da5f3"
     id="path40421"
     style="fill:#f0b9d3;fill-opacity:1" />
</svg>
